# xmcd
#
# Track frame offsets:
#	150
#	11112
#	30015
#	42617
#	54702
#	68905
#	90187
#	111502
#	129401
#	151725
#	178467
#	190684
#	203987
#	221725
#	239600
#	251702
#
# Disc length: 3691
#
# Revision: 1
# Processed by: cddbd v1.5.1PL0 Copyright (c) Steve Scherf et al.
# Submitted via: EasyCDDAExtractor 7.1.3.1
# Normalized: r0:DSETVAR1
#
DISCID=e50e6910
DTITLE=Various Artist - The American Folk Blues Festival 1962 - 1979 Vol. 2
DYEAR=1900
DGENRE=Blues
TTITLE0=Big Mama Thornton - Hound Dog
TTITLE1=Sonny Terry and Brownie McGhee - Stranger Blues
TTITLE2=Skip James - All Night Long
TTITLE3=Sonny Boy Williamson - Keep It To Yourself
TTITLE4=Sonny Boy Williamson - Your Funeral and My Trial
TTITLE5=Big Joe Turner - Flip, Flop and Fly
TTITLE6=Howlin' Wolf - I'll Be Back Someday
TTITLE7=Willie Dixon - Nervous
TTITLE8=Bukka White - Got Sick and Tired
TTITLE9=Son House - Death Letter Blues
TTITLE10=Hound Dog Taylor and Little Walter - Wild About You
TTITLE11=Koko Taylor and Little Walter - Wang Dang Doodle
TTITLE12=Muddy Waters - Long Distance Call
TTITLE13=Earl Hooker - Walking The Floor Over You - Off The Hook
TTITLE14=Magic Sam - All Your Love
TTITLE15=Finale - Entire Cast - Bye Bye Blues
EXTD=
EXTT0=
EXTT1=
EXTT2=
EXTT3=
EXTT4=
EXTT5=
EXTT6=
EXTT7=
EXTT8=
EXTT9=
EXTT10=
EXTT11=
EXTT12=
EXTT13=
EXTT14=
EXTT15=
PLAYORDER=
